<mxfile host="app.diagrams.net" modified="2020-03-29T06:49:31.529Z" agent="Mozilla/5.0 (Macintosh; Intel Mac OS X 10_12_6) AppleWebKit/537.36 (KHTML, like Gecko) Chrome/80.0.3987.149 Safari/537.36" etag="tfe4eILFxAsbpFaEpOGD" version="12.9.3" type="github" pages="3">
  <diagram id="0fftqB5SDdim5vXBRDft" name="原型系统架构">
    <mxGraphModel dx="946" dy="516" grid="1" gridSize="10" guides="1" tooltips="1" connect="1" arrows="1" fold="1" page="1" pageScale="1" pageWidth="827" pageHeight="1169" math="0" shadow="0">
      <root>
        <mxCell id="uDjTmPQQSBD_klyHRm6x-0" />
        <mxCell id="uDjTmPQQSBD_klyHRm6x-1" parent="uDjTmPQQSBD_klyHRm6x-0" />
        <mxCell id="Jeu2VfTS62ePSubwLR9i-0" value="数据库" style="shape=cylinder;whiteSpace=wrap;html=1;boundedLbl=1;backgroundOutline=1;" parent="uDjTmPQQSBD_klyHRm6x-1" vertex="1">
          <mxGeometry x="110" y="220" width="60" height="80" as="geometry" />
        </mxCell>
        <mxCell id="Jeu2VfTS62ePSubwLR9i-1" value="&lt;font style=&quot;font-size: 17px&quot;&gt;表1 手机节点状态表&lt;br&gt;开关机状态、飞行模式、数据流量开关、wifi开关、hotpot、蓝牙开关、位置&lt;br&gt;&lt;br&gt;表2 笔记本节点状态表&lt;br&gt;表3 蜂窝基站位置表&lt;br&gt;表4 AP位置表&amp;nbsp;&lt;/font&gt;" style="text;html=1;align=center;verticalAlign=middle;resizable=0;points=[];autosize=1;" parent="uDjTmPQQSBD_klyHRm6x-1" vertex="1">
          <mxGeometry x="530" y="330" width="580" height="100" as="geometry" />
        </mxCell>
        <mxCell id="f7dFB7Q2NZbKy9rVOQps-0" value="&lt;font style=&quot;font-size: 15px&quot;&gt;DNTDL文件&lt;/font&gt;" style="shape=document;whiteSpace=wrap;html=1;boundedLbl=1;" parent="uDjTmPQQSBD_klyHRm6x-1" vertex="1">
          <mxGeometry x="335" y="160" width="110" height="60" as="geometry" />
        </mxCell>
        <mxCell id="f7dFB7Q2NZbKy9rVOQps-1" style="rounded=0;orthogonalLoop=1;jettySize=auto;html=1;entryX=0.5;entryY=0;entryDx=0;entryDy=0;" parent="uDjTmPQQSBD_klyHRm6x-1" target="f7dFB7Q2NZbKy9rVOQps-16" edge="1">
          <mxGeometry relative="1" as="geometry">
            <mxPoint x="580" y="425" as="targetPoint" />
            <mxPoint x="571" y="350" as="sourcePoint" />
          </mxGeometry>
        </mxCell>
        <mxCell id="f7dFB7Q2NZbKy9rVOQps-2" style="edgeStyle=none;rounded=0;orthogonalLoop=1;jettySize=auto;html=1;entryX=0.5;entryY=0;entryDx=0;entryDy=0;dashed=1;" parent="uDjTmPQQSBD_klyHRm6x-1" target="f7dFB7Q2NZbKy9rVOQps-3" edge="1">
          <mxGeometry relative="1" as="geometry">
            <mxPoint x="395" y="210" as="sourcePoint" />
            <mxPoint x="430" y="210" as="targetPoint" />
          </mxGeometry>
        </mxCell>
        <mxCell id="f7dFB7Q2NZbKy9rVOQps-3" value="" style="rounded=0;whiteSpace=wrap;html=1;" parent="uDjTmPQQSBD_klyHRm6x-1" vertex="1">
          <mxGeometry x="173" y="250" width="445" height="100" as="geometry" />
        </mxCell>
        <mxCell id="f7dFB7Q2NZbKy9rVOQps-4" value="&lt;font style=&quot;font-size: 13px&quot;&gt;移动模型参数&lt;/font&gt;" style="text;html=1;strokeColor=none;fillColor=none;align=center;verticalAlign=middle;whiteSpace=wrap;rounded=0;" parent="uDjTmPQQSBD_klyHRm6x-1" vertex="1">
          <mxGeometry x="470" y="355" width="110" height="20" as="geometry" />
        </mxCell>
        <mxCell id="f7dFB7Q2NZbKy9rVOQps-5" value="" style="rounded=0;whiteSpace=wrap;html=1;" parent="uDjTmPQQSBD_klyHRm6x-1" vertex="1">
          <mxGeometry x="172" y="537" width="448" height="89" as="geometry" />
        </mxCell>
        <mxCell id="f7dFB7Q2NZbKy9rVOQps-6" value="&lt;font style=&quot;font-size: 13px&quot;&gt;网络拓扑参数&lt;/font&gt;" style="text;html=1;strokeColor=none;fillColor=none;align=center;verticalAlign=middle;whiteSpace=wrap;rounded=0;" parent="uDjTmPQQSBD_klyHRm6x-1" vertex="1">
          <mxGeometry x="306.5" y="353" width="90" height="20" as="geometry" />
        </mxCell>
        <mxCell id="f7dFB7Q2NZbKy9rVOQps-7" value="&lt;span style=&quot;font-size: 15px&quot;&gt;路由器&lt;/span&gt;" style="rounded=0;whiteSpace=wrap;html=1;" parent="uDjTmPQQSBD_klyHRm6x-1" vertex="1">
          <mxGeometry x="242" y="557" width="88" height="55" as="geometry" />
        </mxCell>
        <mxCell id="f7dFB7Q2NZbKy9rVOQps-8" value="&lt;span style=&quot;font-size: 15px&quot;&gt;交换机&lt;/span&gt;" style="rounded=0;whiteSpace=wrap;html=1;" parent="uDjTmPQQSBD_klyHRm6x-1" vertex="1">
          <mxGeometry x="371" y="557" width="88" height="55" as="geometry" />
        </mxCell>
        <mxCell id="f7dFB7Q2NZbKy9rVOQps-9" value="&lt;span style=&quot;font-size: 15px&quot;&gt;虚拟机&lt;/span&gt;" style="rounded=0;whiteSpace=wrap;html=1;" parent="uDjTmPQQSBD_klyHRm6x-1" vertex="1">
          <mxGeometry x="500" y="557" width="88" height="55" as="geometry" />
        </mxCell>
        <mxCell id="f7dFB7Q2NZbKy9rVOQps-10" value="&lt;font style=&quot;font-size: 13px&quot;&gt;链路参数&lt;/font&gt;" style="text;html=1;strokeColor=none;fillColor=none;align=center;verticalAlign=middle;whiteSpace=wrap;rounded=0;" parent="uDjTmPQQSBD_klyHRm6x-1" vertex="1">
          <mxGeometry x="484.5" y="498" width="110" height="20" as="geometry" />
        </mxCell>
        <mxCell id="f7dFB7Q2NZbKy9rVOQps-11" value="&lt;font style=&quot;font-size: 13px&quot;&gt;DNTDL编译器&lt;/font&gt;" style="text;html=1;strokeColor=none;fillColor=none;align=center;verticalAlign=middle;whiteSpace=wrap;rounded=0;" parent="uDjTmPQQSBD_klyHRm6x-1" vertex="1">
          <mxGeometry x="170" y="230" width="110" height="70" as="geometry" />
        </mxCell>
        <mxCell id="f7dFB7Q2NZbKy9rVOQps-12" value="&lt;span style=&quot;font-size: 15px&quot;&gt;词法分析&lt;/span&gt;" style="rounded=0;whiteSpace=wrap;html=1;" parent="uDjTmPQQSBD_klyHRm6x-1" vertex="1">
          <mxGeometry x="202" y="277.5" width="88" height="55" as="geometry" />
        </mxCell>
        <mxCell id="f7dFB7Q2NZbKy9rVOQps-13" value="&lt;span style=&quot;font-size: 15px&quot;&gt;语法分析&lt;/span&gt;" style="rounded=0;whiteSpace=wrap;html=1;" parent="uDjTmPQQSBD_klyHRm6x-1" vertex="1">
          <mxGeometry x="302" y="277.5" width="88" height="55" as="geometry" />
        </mxCell>
        <mxCell id="f7dFB7Q2NZbKy9rVOQps-14" value="&lt;span style=&quot;font-size: 15px&quot;&gt;中间代码生成&lt;/span&gt;" style="rounded=0;whiteSpace=wrap;html=1;" parent="uDjTmPQQSBD_klyHRm6x-1" vertex="1">
          <mxGeometry x="509" y="278" width="82" height="53" as="geometry" />
        </mxCell>
        <mxCell id="f7dFB7Q2NZbKy9rVOQps-15" value="&lt;span style=&quot;font-size: 15px&quot;&gt;语义分析&lt;/span&gt;" style="rounded=0;whiteSpace=wrap;html=1;" parent="uDjTmPQQSBD_klyHRm6x-1" vertex="1">
          <mxGeometry x="405.5" y="277.5" width="88" height="55" as="geometry" />
        </mxCell>
        <mxCell id="f7dFB7Q2NZbKy9rVOQps-16" value="&lt;span style=&quot;font-size: 15px&quot;&gt;ns-3移动模块&lt;/span&gt;" style="rounded=0;whiteSpace=wrap;html=1;" parent="uDjTmPQQSBD_klyHRm6x-1" vertex="1">
          <mxGeometry x="520" y="425.5" width="101" height="53" as="geometry" />
        </mxCell>
        <mxCell id="f7dFB7Q2NZbKy9rVOQps-17" value="" style="group" parent="uDjTmPQQSBD_klyHRm6x-1" vertex="1" connectable="0">
          <mxGeometry x="160" y="375" width="340" height="121.5" as="geometry" />
        </mxCell>
        <mxCell id="f7dFB7Q2NZbKy9rVOQps-18" value="" style="rounded=0;whiteSpace=wrap;html=1;" parent="f7dFB7Q2NZbKy9rVOQps-17" vertex="1">
          <mxGeometry x="12" y="18.5" width="328" height="103" as="geometry" />
        </mxCell>
        <mxCell id="f7dFB7Q2NZbKy9rVOQps-19" value="&lt;font style=&quot;font-size: 15px&quot;&gt;Nova&lt;/font&gt;" style="rounded=0;whiteSpace=wrap;html=1;" parent="f7dFB7Q2NZbKy9rVOQps-17" vertex="1">
          <mxGeometry x="134" y="48.5" width="88" height="55" as="geometry" />
        </mxCell>
        <mxCell id="f7dFB7Q2NZbKy9rVOQps-20" value="&lt;font style=&quot;font-size: 13px&quot;&gt;云资源管理层&lt;/font&gt;" style="text;html=1;strokeColor=none;fillColor=none;align=center;verticalAlign=middle;whiteSpace=wrap;rounded=0;" parent="f7dFB7Q2NZbKy9rVOQps-17" vertex="1">
          <mxGeometry width="110" height="70" as="geometry" />
        </mxCell>
        <mxCell id="f7dFB7Q2NZbKy9rVOQps-21" value="&lt;font style=&quot;font-size: 15px&quot;&gt;Glance&lt;/font&gt;" style="rounded=0;whiteSpace=wrap;html=1;" parent="f7dFB7Q2NZbKy9rVOQps-17" vertex="1">
          <mxGeometry x="236.5" y="48.5" width="88" height="55" as="geometry" />
        </mxCell>
        <mxCell id="f7dFB7Q2NZbKy9rVOQps-22" value="&lt;span style=&quot;font-size: 15px&quot;&gt;Neutron&lt;/span&gt;" style="rounded=0;whiteSpace=wrap;html=1;" parent="f7dFB7Q2NZbKy9rVOQps-17" vertex="1">
          <mxGeometry x="30" y="48.5" width="88" height="55" as="geometry" />
        </mxCell>
        <mxCell id="f7dFB7Q2NZbKy9rVOQps-23" value="&lt;font style=&quot;font-size: 13px&quot;&gt;虚拟化层&lt;/font&gt;" style="text;html=1;strokeColor=none;fillColor=none;align=center;verticalAlign=middle;whiteSpace=wrap;rounded=0;" parent="uDjTmPQQSBD_klyHRm6x-1" vertex="1">
          <mxGeometry x="147" y="518" width="110" height="70" as="geometry" />
        </mxCell>
        <mxCell id="f7dFB7Q2NZbKy9rVOQps-24" style="rounded=0;orthogonalLoop=1;jettySize=auto;html=1;entryX=0.5;entryY=0;entryDx=0;entryDy=0;" parent="uDjTmPQQSBD_klyHRm6x-1" target="f7dFB7Q2NZbKy9rVOQps-5" edge="1">
          <mxGeometry relative="1" as="geometry">
            <mxPoint x="396" y="500" as="sourcePoint" />
            <mxPoint x="359.5" y="540.5" as="targetPoint" />
          </mxGeometry>
        </mxCell>
        <mxCell id="f7dFB7Q2NZbKy9rVOQps-25" style="rounded=0;orthogonalLoop=1;jettySize=auto;html=1;entryX=0.5;entryY=0;entryDx=0;entryDy=0;" parent="uDjTmPQQSBD_klyHRm6x-1" edge="1">
          <mxGeometry relative="1" as="geometry">
            <mxPoint x="570" y="480" as="sourcePoint" />
            <mxPoint x="570" y="537" as="targetPoint" />
          </mxGeometry>
        </mxCell>
        <mxCell id="f7dFB7Q2NZbKy9rVOQps-26" value="&lt;font style=&quot;font-size: 13px&quot;&gt;虚拟资源调用指令&lt;/font&gt;" style="text;html=1;strokeColor=none;fillColor=none;align=center;verticalAlign=middle;whiteSpace=wrap;rounded=0;" parent="uDjTmPQQSBD_klyHRm6x-1" vertex="1">
          <mxGeometry x="285" y="502" width="110" height="20" as="geometry" />
        </mxCell>
        <mxCell id="f7dFB7Q2NZbKy9rVOQps-27" style="rounded=0;orthogonalLoop=1;jettySize=auto;html=1;entryX=0.683;entryY=-0.015;entryDx=0;entryDy=0;entryPerimeter=0;" parent="uDjTmPQQSBD_klyHRm6x-1" target="f7dFB7Q2NZbKy9rVOQps-18" edge="1">
          <mxGeometry relative="1" as="geometry">
            <mxPoint x="396" y="353" as="sourcePoint" />
            <mxPoint x="396" y="390" as="targetPoint" />
          </mxGeometry>
        </mxCell>
        <mxCell id="f7dFB7Q2NZbKy9rVOQps-28" value="" style="endArrow=classic;html=1;dashed=1;" parent="uDjTmPQQSBD_klyHRm6x-1" edge="1">
          <mxGeometry width="50" height="50" relative="1" as="geometry">
            <mxPoint x="453" y="649" as="sourcePoint" />
            <mxPoint x="509.5" y="649" as="targetPoint" />
          </mxGeometry>
        </mxCell>
        <mxCell id="f7dFB7Q2NZbKy9rVOQps-29" value="" style="endArrow=classic;html=1;" parent="uDjTmPQQSBD_klyHRm6x-1" edge="1">
          <mxGeometry width="50" height="50" relative="1" as="geometry">
            <mxPoint x="452.5" y="675" as="sourcePoint" />
            <mxPoint x="509" y="675" as="targetPoint" />
          </mxGeometry>
        </mxCell>
        <mxCell id="f7dFB7Q2NZbKy9rVOQps-30" value="&lt;font style=&quot;font-size: 13px&quot;&gt;文件输入&lt;/font&gt;" style="text;html=1;strokeColor=none;fillColor=none;align=center;verticalAlign=middle;whiteSpace=wrap;rounded=0;" parent="uDjTmPQQSBD_klyHRm6x-1" vertex="1">
          <mxGeometry x="493.5" y="612" width="110" height="70" as="geometry" />
        </mxCell>
        <mxCell id="f7dFB7Q2NZbKy9rVOQps-31" value="&lt;font style=&quot;font-size: 13px&quot;&gt;参数或指令传递方向&lt;/font&gt;" style="text;html=1;strokeColor=none;fillColor=none;align=center;verticalAlign=middle;whiteSpace=wrap;rounded=0;" parent="uDjTmPQQSBD_klyHRm6x-1" vertex="1">
          <mxGeometry x="511" y="645" width="76" height="74" as="geometry" />
        </mxCell>
      </root>
    </mxGraphModel>
  </diagram>
  <diagram id="wFybjqzuRoPJx30oaoKm" name="仿真平台层次结构">
    <mxGraphModel dx="946" dy="516" grid="1" gridSize="10" guides="1" tooltips="1" connect="1" arrows="1" fold="1" page="1" pageScale="1" pageWidth="827" pageHeight="1169" math="0" shadow="0">
      <root>
        <mxCell id="S2B2vpb7MruIjo4d-82o-0" />
        <mxCell id="S2B2vpb7MruIjo4d-82o-1" parent="S2B2vpb7MruIjo4d-82o-0" />
        <mxCell id="S2B2vpb7MruIjo4d-82o-2" value="&lt;span style=&quot;white-space: normal&quot;&gt;&lt;font style=&quot;font-size: 14px&quot;&gt;仿真测试层&lt;/font&gt;&lt;/span&gt;" style="rounded=1;whiteSpace=wrap;html=1;" parent="S2B2vpb7MruIjo4d-82o-1" vertex="1">
          <mxGeometry x="350" y="260" width="210" height="50" as="geometry" />
        </mxCell>
        <mxCell id="S2B2vpb7MruIjo4d-82o-3" value="&lt;span style=&quot;white-space: normal&quot;&gt;&lt;font style=&quot;font-size: 14px&quot;&gt;物理资源层&lt;/font&gt;&lt;/span&gt;" style="rounded=1;whiteSpace=wrap;html=1;" parent="S2B2vpb7MruIjo4d-82o-1" vertex="1">
          <mxGeometry x="350" y="530" width="210" height="50" as="geometry" />
        </mxCell>
        <mxCell id="S2B2vpb7MruIjo4d-82o-4" value="&lt;font style=&quot;font-size: 14px&quot;&gt;云资源管理层&lt;/font&gt;" style="rounded=1;whiteSpace=wrap;html=1;" parent="S2B2vpb7MruIjo4d-82o-1" vertex="1">
          <mxGeometry x="350" y="350" width="210" height="50" as="geometry" />
        </mxCell>
        <mxCell id="S2B2vpb7MruIjo4d-82o-5" value="&lt;span style=&quot;white-space: normal&quot;&gt;&lt;font style=&quot;font-size: 14px&quot;&gt;虚拟资源层&lt;/font&gt;&lt;/span&gt;" style="rounded=1;whiteSpace=wrap;html=1;" parent="S2B2vpb7MruIjo4d-82o-1" vertex="1">
          <mxGeometry x="350" y="440" width="210" height="50" as="geometry" />
        </mxCell>
        <mxCell id="S2B2vpb7MruIjo4d-82o-6" value="" style="shape=flexArrow;endArrow=classic;html=1;" parent="S2B2vpb7MruIjo4d-82o-1" edge="1">
          <mxGeometry width="50" height="50" relative="1" as="geometry">
            <mxPoint x="455" y="310" as="sourcePoint" />
            <mxPoint x="455" y="350" as="targetPoint" />
          </mxGeometry>
        </mxCell>
        <mxCell id="S2B2vpb7MruIjo4d-82o-7" value="" style="shape=flexArrow;endArrow=classic;html=1;" parent="S2B2vpb7MruIjo4d-82o-1" edge="1">
          <mxGeometry width="50" height="50" relative="1" as="geometry">
            <mxPoint x="455" y="490" as="sourcePoint" />
            <mxPoint x="455" y="530" as="targetPoint" />
          </mxGeometry>
        </mxCell>
        <mxCell id="S2B2vpb7MruIjo4d-82o-8" value="" style="shape=flexArrow;endArrow=classic;html=1;" parent="S2B2vpb7MruIjo4d-82o-1" edge="1">
          <mxGeometry width="50" height="50" relative="1" as="geometry">
            <mxPoint x="454" y="400" as="sourcePoint" />
            <mxPoint x="454" y="440" as="targetPoint" />
          </mxGeometry>
        </mxCell>
      </root>
    </mxGraphModel>
  </diagram>
  <diagram id="9diQBgH1hAi2UFY4oU7q" name="功能模块交互关系">
    <mxGraphModel dx="946" dy="516" grid="1" gridSize="10" guides="1" tooltips="1" connect="1" arrows="1" fold="1" page="1" pageScale="1" pageWidth="827" pageHeight="1169" math="0" shadow="0">
      <root>
        <mxCell id="VT4icdKESfeV44I3_4wx-0" />
        <mxCell id="VT4icdKESfeV44I3_4wx-1" parent="VT4icdKESfeV44I3_4wx-0" />
        <mxCell id="VT4icdKESfeV44I3_4wx-2" value="" style="edgeStyle=orthogonalEdgeStyle;rounded=0;orthogonalLoop=1;jettySize=auto;html=1;" edge="1" parent="VT4icdKESfeV44I3_4wx-1" source="VT4icdKESfeV44I3_4wx-4" target="VT4icdKESfeV44I3_4wx-5">
          <mxGeometry relative="1" as="geometry" />
        </mxCell>
        <mxCell id="VT4icdKESfeV44I3_4wx-3" style="edgeStyle=orthogonalEdgeStyle;rounded=0;orthogonalLoop=1;jettySize=auto;html=1;exitX=0.5;exitY=0;exitDx=0;exitDy=0;entryX=0;entryY=0.5;entryDx=0;entryDy=0;endArrow=none;endFill=0;" edge="1" parent="VT4icdKESfeV44I3_4wx-1" source="VT4icdKESfeV44I3_4wx-4" target="VT4icdKESfeV44I3_4wx-12">
          <mxGeometry relative="1" as="geometry" />
        </mxCell>
        <mxCell id="VT4icdKESfeV44I3_4wx-4" value="node" style="rounded=1;whiteSpace=wrap;html=1;" vertex="1" parent="VT4icdKESfeV44I3_4wx-1">
          <mxGeometry x="110" y="210" width="120" height="60" as="geometry" />
        </mxCell>
        <mxCell id="VT4icdKESfeV44I3_4wx-5" value="interface" style="rounded=1;whiteSpace=wrap;html=1;" vertex="1" parent="VT4icdKESfeV44I3_4wx-1">
          <mxGeometry x="110" y="340" width="120" height="60" as="geometry" />
        </mxCell>
        <mxCell id="VT4icdKESfeV44I3_4wx-6" value="" style="edgeStyle=orthogonalEdgeStyle;rounded=0;orthogonalLoop=1;jettySize=auto;html=1;" edge="1" parent="VT4icdKESfeV44I3_4wx-1" source="VT4icdKESfeV44I3_4wx-8" target="VT4icdKESfeV44I3_4wx-9">
          <mxGeometry relative="1" as="geometry" />
        </mxCell>
        <mxCell id="VT4icdKESfeV44I3_4wx-7" style="edgeStyle=orthogonalEdgeStyle;rounded=0;orthogonalLoop=1;jettySize=auto;html=1;exitX=0.5;exitY=0;exitDx=0;exitDy=0;entryX=0.5;entryY=1;entryDx=0;entryDy=0;endArrow=none;endFill=0;" edge="1" parent="VT4icdKESfeV44I3_4wx-1" source="VT4icdKESfeV44I3_4wx-8" target="VT4icdKESfeV44I3_4wx-12">
          <mxGeometry relative="1" as="geometry" />
        </mxCell>
        <mxCell id="VT4icdKESfeV44I3_4wx-8" value="controller&lt;br&gt;只负责调度" style="rounded=1;whiteSpace=wrap;html=1;" vertex="1" parent="VT4icdKESfeV44I3_4wx-1">
          <mxGeometry x="330" y="350" width="120" height="60" as="geometry" />
        </mxCell>
        <mxCell id="VT4icdKESfeV44I3_4wx-9" value="driver" style="rounded=1;whiteSpace=wrap;html=1;" vertex="1" parent="VT4icdKESfeV44I3_4wx-1">
          <mxGeometry x="570" y="350" width="120" height="60" as="geometry" />
        </mxCell>
        <mxCell id="VT4icdKESfeV44I3_4wx-10" style="edgeStyle=orthogonalEdgeStyle;rounded=0;orthogonalLoop=1;jettySize=auto;html=1;exitX=0;exitY=0.5;exitDx=0;exitDy=0;entryX=1;entryY=0.5;entryDx=0;entryDy=0;endArrow=none;endFill=0;" edge="1" parent="VT4icdKESfeV44I3_4wx-1" source="VT4icdKESfeV44I3_4wx-11" target="VT4icdKESfeV44I3_4wx-12">
          <mxGeometry relative="1" as="geometry" />
        </mxCell>
        <mxCell id="VT4icdKESfeV44I3_4wx-11" value="connection" style="rounded=1;whiteSpace=wrap;html=1;" vertex="1" parent="VT4icdKESfeV44I3_4wx-1">
          <mxGeometry x="640" y="160" width="120" height="60" as="geometry" />
        </mxCell>
        <mxCell id="VT4icdKESfeV44I3_4wx-12" value="timer&lt;br&gt;（定时器）" style="rounded=1;whiteSpace=wrap;html=1;" vertex="1" parent="VT4icdKESfeV44I3_4wx-1">
          <mxGeometry x="330" y="160" width="120" height="60" as="geometry" />
        </mxCell>
      </root>
    </mxGraphModel>
  </diagram>
</mxfile>
